<?xml version="1.0" encoding="utf-8"?>
<!-- Generator: Adobe Illustrator 15.0.0, SVG Export Plug-In . SVG Version: 6.00 Build 0)  -->
<!DOCTYPE svg PUBLIC "-//W3C//DTD SVG 1.1//EN" "http://www.w3.org/Graphics/SVG/1.1/DTD/svg11.dtd">
<svg version="1.1" id="Ebene_1" xmlns="http://www.w3.org/2000/svg" xmlns:xlink="http://www.w3.org/1999/xlink" x="0px" y="0px"
	 width="841.89px" height="595.28px" viewBox="0 0 841.89 595.28" enable-background="new 0 0 841.89 595.28" xml:space="preserve">
<path fill="#EDEDED" stroke="#1D1D1B" stroke-width="1.2531" stroke-miterlimit="10" d="M702.287,387.693l-88.452,22.556h-33.17
	H204.74l-11.057-45.11l-55.282-11.277v-33.834h519.66c0,0-11.719,11.278,10.394,22.556c22.113,11.278,33.833,11.278,33.833,11.278
	V387.693z"/>
<polygon fill="#B4CECB" stroke="#1D1D1B" stroke-width="1.3798" stroke-miterlimit="10" points="113.751,297.472 113.751,177.352 
	266.858,177.217 266.858,296.844 "/>
<path fill="#C6C6C6" stroke="#1D1D1B" stroke-width="1.2269" stroke-miterlimit="10" d="M99.417,167.644h175.825
	c0,0,9.769,0,9.769-2.275c0,0,0-2.275-9.769-2.275c-9.765,0-175.825,0-175.825,0s-9.769,0-9.769,2.275
	C89.647,165.369,89.647,167.644,99.417,167.644z"/>
<path fill="none" stroke="#1D1D1B" stroke-width="0.6723" stroke-miterlimit="10" d="M251.177,210.374"/>
<path fill="#B4CECB" stroke="#1D1D1B" stroke-width="1.2394" stroke-miterlimit="10" d="M261.683,195.904h308.05V314.25
	l-308.05-0.617c0,0-39.258-15.506-39.254-58.555C222.432,203.185,261.683,195.904,261.683,195.904z"/>
<path fill="#9D9D9C" stroke="#1D1D1B" stroke-width="1.2531" stroke-miterlimit="10" d="M187.449,260.417V221.75
	c0,0,0-14.5,13.694-14.5c13.695,0,13.695,14.5,13.695,14.5v38.667c0,0,0,14.5-13.695,14.5
	C187.449,274.917,187.449,260.417,187.449,260.417z"/>
<path fill="#C6C6C6" stroke="#1D1D1B" stroke-width="1.2531" stroke-miterlimit="10" d="M578.232,303.735v-104.97
	c0,0,0-9.542,8.458-9.542s76.125,0,76.125,0s8.458,0,8.458,9.542s8.458,19.085,8.458,19.085v9.544v57.255
	c0,0-8.458,9.543-8.458,19.085s-8.458,9.542-8.458,9.542h-84.583V303.735z"/>
<path fill="#B2B2B2" stroke="#1D1D1B" stroke-width="1.2531" stroke-miterlimit="10" d="M682.555,220.925
	c0,0,5.026,8.626,10.053,10.064v40.256c0,0-5.026,1.438-10.053,10.064V220.925z"/>
<path fill="none" stroke="#1D1D1B" stroke-width="0.9542" stroke-miterlimit="10" d="M736.12,308.749"/>
<path fill="#878787" stroke="#1D1D1B" stroke-width="1.2531" stroke-miterlimit="10" d="M134.266,263.335l32.905,0.304
	c0,0,5.062,0,5.062-8.062v-36.284c0,0,0-8.062-5.062-8.062c-2.531,0-32.904,0-32.904,0s-5.062,0-5.062,8.062
	c0,4.033,0,36.284,0,36.284S129.204,263.033,134.266,263.335z"/>
<path fill="none" stroke="#1D1D1B" stroke-width="1.0598" stroke-miterlimit="10" d="M270,468"/>
<path fill="#B2B2B2" stroke="#1D1D1B" stroke-width="1.2531" stroke-miterlimit="10" d="M93.289,195.971h124.055
	c0,0,22.556-15.037,67.667-15.037v-7.519H93.289V195.971z"/>
<line fill="none" stroke="#1D1D1B" stroke-width="1.2531" stroke-miterlimit="10" x1="93.289" y1="203.165" x2="217.343" y2="203.165"/>
<path fill="none" stroke="#1D1D1B" stroke-width="1.2531" stroke-miterlimit="10" d="M341.4,398.972"/>
<g>
	<path fill="#B2B2B2" stroke="#1D1D1B" stroke-width="1.2531" stroke-miterlimit="10" d="M214.838,318.01
		c-31.143,0-56.389,25.245-56.389,56.389c0,31.141,25.247,56.389,56.389,56.389c31.142,0,56.389-25.248,56.389-56.389
		C271.227,343.255,245.98,318.01,214.838,318.01z M214.838,425.148c-28.028,0-50.749-22.723-50.749-50.75
		c0-28.028,22.721-50.75,50.749-50.75c28.029,0,50.75,22.722,50.75,50.75C265.587,402.426,242.867,425.148,214.838,425.148z"/>
	<path fill="#878787" stroke="#1D1D1B" stroke-width="1.2531" stroke-miterlimit="10" d="M227.47,374.396
		c0,6.285-5.096,11.381-11.381,11.381c-6.284,0-11.378-5.096-11.378-11.381c0-6.282,5.094-11.378,11.378-11.378
		C222.375,363.019,227.47,368.114,227.47,374.396z"/>
	<polygon fill="#B2B2B2" stroke="#1D1D1B" stroke-width="1.2531" stroke-miterlimit="10" points="213.586,359.42 216.487,359.42 
		216.487,327.619 215.036,327.619 213.586,327.619 	"/>
	<polygon fill="#B2B2B2" stroke="#1D1D1B" stroke-width="1.2531" stroke-miterlimit="10" points="213.586,422.874 216.487,422.874 
		216.487,391.072 215.036,391.072 213.586,391.072 	"/>
	<polygon fill="#B2B2B2" stroke="#1D1D1B" stroke-width="1.2531" stroke-miterlimit="10" points="169.129,373.144 169.129,376.047 
		200.93,376.047 200.93,374.595 200.93,373.144 	"/>
	<polygon fill="#B2B2B2" stroke="#1D1D1B" stroke-width="1.2531" stroke-miterlimit="10" points="231.279,373.144 231.279,376.047 
		263.082,376.047 263.082,374.595 263.082,373.144 	"/>
	<polygon fill="#B2B2B2" stroke="#1D1D1B" stroke-width="1.2531" stroke-miterlimit="10" points="226.217,362.248 228.271,364.302 
		250.757,341.814 249.73,340.786 248.704,339.761 	"/>
	<polygon fill="#B2B2B2" stroke="#1D1D1B" stroke-width="1.2531" stroke-miterlimit="10" points="181.424,408.264 183.478,410.316 
		205.964,387.83 204.938,386.802 203.911,385.776 	"/>
	<polygon fill="#B2B2B2" stroke="#1D1D1B" stroke-width="1.2531" stroke-miterlimit="10" points="203.911,364.302 205.964,362.248 
		183.478,339.761 182.45,340.788 181.424,341.814 	"/>
	<polygon fill="#B2B2B2" stroke="#1D1D1B" stroke-width="1.2531" stroke-miterlimit="10" points="247.451,409.063 249.504,407.01 
		227.017,384.523 225.989,385.55 224.964,386.576 	"/>
</g>
<g>
	<path fill="#B2B2B2" stroke="#1D1D1B" stroke-width="1.2531" stroke-miterlimit="10" d="M367.088,318.205
		c-31.142,0-56.389,25.246-56.389,56.39c0,31.142,25.247,56.39,56.389,56.39s56.389-25.248,56.389-56.39
		C423.478,343.451,398.23,318.205,367.088,318.205z M367.088,425.345c-28.028,0-50.749-22.722-50.749-50.75
		s22.721-50.75,50.749-50.75c28.029,0,50.75,22.722,50.75,50.75S395.118,425.345,367.088,425.345z"/>
	<circle fill="#878787" stroke="#1D1D1B" stroke-width="1.2531" stroke-miterlimit="10" cx="368.342" cy="374.594" r="11.379"/>
	<polygon fill="#B2B2B2" stroke="#1D1D1B" stroke-width="1.2531" stroke-miterlimit="10" points="365.837,359.616 368.738,359.616 
		368.738,327.815 367.287,327.815 365.837,327.815 	"/>
	<polygon fill="#B2B2B2" stroke="#1D1D1B" stroke-width="1.2531" stroke-miterlimit="10" points="365.837,423.071 368.738,423.071 
		368.738,391.27 367.287,391.27 365.837,391.27 	"/>
	<polygon fill="#B2B2B2" stroke="#1D1D1B" stroke-width="1.2531" stroke-miterlimit="10" points="321.38,373.34 321.38,376.243 
		353.181,376.243 353.181,374.792 353.181,373.34 	"/>
	<polygon fill="#B2B2B2" stroke="#1D1D1B" stroke-width="1.2531" stroke-miterlimit="10" points="383.53,373.34 383.53,376.243 
		415.332,376.243 415.332,374.792 415.332,373.34 	"/>
	<polygon fill="#B2B2B2" stroke="#1D1D1B" stroke-width="1.2531" stroke-miterlimit="10" points="378.468,362.444 380.521,364.498 
		403.008,342.011 401.981,340.982 400.955,339.957 	"/>
	<polygon fill="#B2B2B2" stroke="#1D1D1B" stroke-width="1.2531" stroke-miterlimit="10" points="333.675,408.46 335.729,410.514 
		358.215,388.026 357.188,386.999 356.162,385.974 	"/>
	<polygon fill="#B2B2B2" stroke="#1D1D1B" stroke-width="1.2531" stroke-miterlimit="10" points="356.162,364.498 358.215,362.444 
		335.729,339.957 334.701,340.984 333.675,342.011 	"/>
	<polygon fill="#B2B2B2" stroke="#1D1D1B" stroke-width="1.2531" stroke-miterlimit="10" points="399.702,409.261 401.755,407.207 
		379.268,384.72 378.24,385.746 377.215,386.773 	"/>
</g>
<g>
	<path fill="#B2B2B2" stroke="#1D1D1B" stroke-width="1.2531" stroke-miterlimit="10" d="M490.043,318.01
		c-31.143,0-56.39,25.245-56.39,56.389c0,31.142,25.247,56.39,56.39,56.39c31.142,0,56.389-25.248,56.389-56.39
		C546.432,343.255,521.185,318.01,490.043,318.01z M490.043,425.149c-28.028,0-50.749-22.722-50.749-50.751
		c0-28.028,22.721-50.75,50.749-50.75s50.749,22.722,50.749,50.75C540.792,402.428,518.071,425.149,490.043,425.149z"/>
	<path fill="#878787" stroke="#1D1D1B" stroke-width="1.2531" stroke-miterlimit="10" d="M502.675,374.396
		c0,6.285-5.096,11.381-11.381,11.381c-6.283,0-11.378-5.096-11.378-11.381c0-6.282,5.095-11.378,11.378-11.378
		C497.579,363.019,502.675,368.114,502.675,374.396z"/>
	<polygon fill="#B2B2B2" stroke="#1D1D1B" stroke-width="1.2531" stroke-miterlimit="10" points="488.791,359.42 491.692,359.42 
		491.692,327.619 490.24,327.619 488.791,327.619 	"/>
	<polygon fill="#B2B2B2" stroke="#1D1D1B" stroke-width="1.2531" stroke-miterlimit="10" points="488.791,422.876 491.692,422.876 
		491.692,391.073 490.24,391.073 488.791,391.073 	"/>
	<polygon fill="#B2B2B2" stroke="#1D1D1B" stroke-width="1.2531" stroke-miterlimit="10" points="444.334,373.144 444.334,376.047 
		476.135,376.047 476.135,374.595 476.135,373.144 	"/>
	<polygon fill="#B2B2B2" stroke="#1D1D1B" stroke-width="1.2531" stroke-miterlimit="10" points="506.484,373.144 506.484,376.047 
		538.286,376.047 538.286,374.595 538.286,373.144 	"/>
	<polygon fill="#B2B2B2" stroke="#1D1D1B" stroke-width="1.2531" stroke-miterlimit="10" points="501.422,362.248 503.476,364.302 
		525.962,341.814 524.936,340.786 523.909,339.761 	"/>
	<polygon fill="#B2B2B2" stroke="#1D1D1B" stroke-width="1.2531" stroke-miterlimit="10" points="456.629,408.265 458.683,410.317 
		481.169,387.831 480.143,386.803 479.116,385.777 	"/>
	<polygon fill="#B2B2B2" stroke="#1D1D1B" stroke-width="1.2531" stroke-miterlimit="10" points="479.116,364.302 481.169,362.248 
		458.683,339.761 457.654,340.788 456.629,341.814 	"/>
	<polygon fill="#B2B2B2" stroke="#1D1D1B" stroke-width="1.2531" stroke-miterlimit="10" points="522.655,409.064 524.709,407.012 
		502.222,384.524 501.194,385.55 500.169,386.578 	"/>
</g>
<path fill="#B4CECB" stroke="#1D1D1B" stroke-width="1.2531" stroke-miterlimit="10" d="M601.554,398.681l40.869,0.445
	c0,0,6.286,0,6.286-11.813v-53.162c0,0,0-11.812-6.286-11.812c-3.145,0-40.869,0-40.869,0s-6.286,0-6.286,11.812
	c0,5.909,0,53.162,0,53.162S595.268,398.238,601.554,398.681z"/>
<g>
	<path fill="#878787" stroke="#1D1D1B" stroke-width="1.2531" stroke-miterlimit="10" d="M569.732,381.947
		c-13.822,0-25.025,11.204-25.025,25.026c0,13.82,11.203,25.026,25.025,25.026c13.82,0,25.025-11.206,25.025-25.026
		C594.758,393.151,583.553,381.947,569.732,381.947z M569.732,429.497c-12.439,0-22.522-10.085-22.522-22.523
		c0-12.44,10.083-22.523,22.522-22.523s22.523,10.083,22.523,22.523C592.256,419.412,582.172,429.497,569.732,429.497z"/>
	<circle fill="#878787" stroke="#1D1D1B" stroke-width="1.2531" stroke-miterlimit="10" cx="570.289" cy="406.973" r="5.05"/>
	<polygon fill="#878787" stroke="#1D1D1B" stroke-width="1.2531" stroke-miterlimit="10" points="569.177,400.326 570.465,400.326 
		570.465,386.212 569.82,386.212 569.177,386.212 	"/>
	<polygon fill="#878787" stroke="#1D1D1B" stroke-width="1.2531" stroke-miterlimit="10" points="569.177,428.487 570.465,428.487 
		570.465,414.373 569.82,414.373 569.177,414.373 	"/>
	<polygon fill="#878787" stroke="#1D1D1B" stroke-width="1.2531" stroke-miterlimit="10" points="549.446,406.415 549.446,407.704 
		563.561,407.704 563.561,407.061 563.561,406.415 	"/>
	<polygon fill="#878787" stroke="#1D1D1B" stroke-width="1.2531" stroke-miterlimit="10" points="577.029,406.415 577.029,407.704 
		591.144,407.704 591.144,407.061 591.144,406.415 	"/>
	<polygon fill="#878787" stroke="#1D1D1B" stroke-width="1.2531" stroke-miterlimit="10" points="574.782,401.58 575.694,402.492 
		585.675,392.512 585.218,392.055 584.763,391.602 	"/>
	<polygon fill="#878787" stroke="#1D1D1B" stroke-width="1.2531" stroke-miterlimit="10" points="554.904,422.003 555.814,422.915 
		565.794,412.935 565.339,412.478 564.884,412.023 	"/>
	<polygon fill="#878787" stroke="#1D1D1B" stroke-width="1.2531" stroke-miterlimit="10" points="564.884,402.492 565.794,401.58 
		555.814,391.602 555.358,392.057 554.904,392.512 	"/>
	<polygon fill="#878787" stroke="#1D1D1B" stroke-width="1.2531" stroke-miterlimit="10" points="584.206,422.358 585.118,421.446 
		575.137,411.467 574.682,411.922 574.227,412.379 	"/>
</g>
<g>
	<path fill="#878787" stroke="#1D1D1B" stroke-width="1.2531" stroke-miterlimit="10" d="M677.226,381.947
		c-13.822,0-25.025,11.204-25.025,25.026c0,13.82,11.203,25.026,25.025,25.026c13.82,0,25.026-11.206,25.026-25.026
		C702.252,393.151,691.046,381.947,677.226,381.947z M677.226,429.497c-12.439,0-22.522-10.085-22.522-22.523
		c0-12.44,10.083-22.523,22.522-22.523c12.44,0,22.523,10.083,22.523,22.523C699.749,419.412,689.666,429.497,677.226,429.497z"/>
	<circle fill="#878787" stroke="#1D1D1B" stroke-width="1.2531" stroke-miterlimit="10" cx="677.783" cy="406.973" r="5.05"/>
	<polygon fill="#878787" stroke="#1D1D1B" stroke-width="1.2531" stroke-miterlimit="10" points="676.67,400.326 677.959,400.326 
		677.959,386.212 677.313,386.212 676.67,386.212 	"/>
	<polygon fill="#878787" stroke="#1D1D1B" stroke-width="1.2531" stroke-miterlimit="10" points="676.67,428.487 677.959,428.487 
		677.959,414.373 677.313,414.373 676.67,414.373 	"/>
	<polygon fill="#878787" stroke="#1D1D1B" stroke-width="1.2531" stroke-miterlimit="10" points="656.94,406.415 656.94,407.704 
		671.055,407.704 671.055,407.061 671.055,406.415 	"/>
	<polygon fill="#878787" stroke="#1D1D1B" stroke-width="1.2531" stroke-miterlimit="10" points="684.522,406.415 684.522,407.704 
		698.637,407.704 698.637,407.061 698.637,406.415 	"/>
	<polygon fill="#878787" stroke="#1D1D1B" stroke-width="1.2531" stroke-miterlimit="10" points="682.275,401.58 683.188,402.492 
		693.168,392.512 692.712,392.055 692.257,391.602 	"/>
	<polygon fill="#878787" stroke="#1D1D1B" stroke-width="1.2531" stroke-miterlimit="10" points="662.397,422.003 663.309,422.915 
		673.288,412.935 672.832,412.478 672.377,412.023 	"/>
	<polygon fill="#878787" stroke="#1D1D1B" stroke-width="1.2531" stroke-miterlimit="10" points="672.377,402.492 673.288,401.58 
		663.309,391.602 662.852,392.057 662.397,392.512 	"/>
	<polygon fill="#878787" stroke="#1D1D1B" stroke-width="1.2531" stroke-miterlimit="10" points="691.699,422.358 692.611,421.446 
		682.631,411.467 682.176,411.922 681.721,412.379 	"/>
</g>
<path fill="#F6F6F6" stroke="#1D1D1B" stroke-width="0.999" stroke-miterlimit="10" d="M137.603,257.993l26.232,0.241
	c0,0,4.035,0,4.035-6.427v-28.927c0,0,0-6.427-4.035-6.427c-2.019,0-26.232,0-26.232,0s-4.036,0-4.036,6.427
	c0,3.215,0,28.927,0,28.927S133.567,257.752,137.603,257.993z"/>
<path fill="#F6F6F6" stroke="#1D1D1B" stroke-width="1.0035" stroke-miterlimit="10" d="M190.889,257.73v-33.819
	c0,0,0-12.681,10.041-12.681c10.042,0,10.042,12.681,10.042,12.681v33.819c0,0,0,12.681-10.042,12.681
	C190.889,270.412,190.889,257.73,190.889,257.73z"/>
<path fill="#DADADA" stroke="#1D1D1B" stroke-width="1.2531" stroke-miterlimit="10" d="M591.4,387.693v-12.71
	c0,0,0-4.767,2.653-4.767c2.65,0,2.65,4.767,2.65,4.767v12.71c0,0,0,4.767-2.65,4.767C591.4,392.46,591.4,387.693,591.4,387.693z"/>
<polyline fill="none" stroke="#1D1D1B" stroke-width="2.5062" stroke-miterlimit="10" points="216.091,374.398 228.991,398.972 
	368.302,398.972 496.003,376.415 496.003,365.138 "/>
<path fill="#B4CECB" stroke="#1D1D1B" stroke-width="1.3129" stroke-miterlimit="10" d="M113.751,302.789v45.755h79.578
	c0,0,23.559,0,24.015-11.854v-33.901H113.751z"/>
<path fill="#B4CECB" stroke="#1D1D1B" stroke-width="1.2531" stroke-miterlimit="10" d="M488.01,192.508v-32.222
	c0,0,0-12.889,15.708-12.889h31.417c0,0,15.708,0,15.708,6.444c0,6.445,0,38.667,0,38.667H488.01z"/>
<path fill="#B4CECB" stroke="#1D1D1B" stroke-width="1.2531" stroke-miterlimit="10" d="M426.757,192.508v-16.111
	c0,0,0-6.445,7.854-6.445h15.709c0,0,7.854,0,7.854,3.222c0,3.223,0,19.334,0,19.334H426.757z"/>
<path fill="#C6C6C6" stroke="#1D1D1B" stroke-width="1.2531" stroke-miterlimit="10" d="M605.621,185.404v-24.167
	c0,0,0-9.667,7.249-9.667h14.501c0,0,7.25,0,7.25,4.833c0,4.834,0,29,0,29H605.621z"/>
<line fill="#C6C6C6" stroke="#1D1D1B" stroke-width="1.2531" stroke-miterlimit="10" x1="579.52" y1="353.86" x2="566.954" y2="385.273"/>
<line fill="#C6C6C6" stroke="#1D1D1B" stroke-width="2.0515" stroke-miterlimit="10" x1="589.56" y1="375.992" x2="499.531" y2="365.139"/>
<line fill="#C6C6C6" stroke="#1D1D1B" stroke-width="1.6119" stroke-miterlimit="10" x1="702.287" y1="394.395" x2="646.706" y2="387.693"/>
<path fill="#DADADA" stroke="#1D1D1B" stroke-width="1.2531" stroke-miterlimit="10" d="M645.898,386.658v-12.712
	c0,0,0-4.767,2.653-4.767c2.65,0,2.65,4.767,2.65,4.767v12.712c0,0,0,4.767-2.65,4.767
	C645.898,391.425,645.898,386.658,645.898,386.658z"/>
<path fill="none" stroke="#1D1D1B" stroke-width="1.2531" stroke-miterlimit="10" d="M228.622,218.527
	c0,0,22.556,45.111,67.667,45.111c45.111,0,101.5,0,101.5,0s22.556,0,22.556-11.278s0-33.833,0-33.833s0-11.277,11.278-11.277
	c11.277,0,22.556,0,22.556,0s11.277,0,11.277,11.277c0,11.278,0,33.833,0,33.833s-0.001,11.278,11.277,11.278
	c11.277,0,45.11,0,45.11,0s11.278,0,11.278-11.278s0-33.833,0-45.111c0-11.278,0-22.556,0-22.556"/>
<path fill="none" stroke="#1D1D1B" stroke-width="1.2531" stroke-miterlimit="10" d="M431.621,228.402v-33.819
	c0,0,0-12.681,10.041-12.681c10.042,0,10.042,12.681,10.042,12.681v33.819c0,0,0,12.681-10.042,12.681
	C431.621,241.083,431.621,228.402,431.621,228.402z"/>
<path fill="none" stroke="#1D1D1B" stroke-width="1.2531" stroke-miterlimit="10" d="M545.924,345.427v-33.819
	c0,0,0-12.681,10.041-12.681c10.042,0,10.042,12.681,10.042,12.681v33.819c0,0,0,12.682-10.042,12.682
	C545.924,358.108,545.924,345.427,545.924,345.427z"/>
<path fill="none" stroke="#1D1D1B" stroke-width="1.2531" stroke-miterlimit="10" d="M510.565,184.694v90.222
	c0,0,0,11.277,22.556,11.277c11.277,0,11.277,0,11.277,0s11.278,0,11.278,22.556"/>
<line fill="#C6C6C6" stroke="#1D1D1B" stroke-width="1.8192" stroke-miterlimit="10" x1="579.604" y1="326.999" x2="508.65" y2="334.102"/>
<path fill="none" stroke="#1D1D1B" stroke-width="2.0515" stroke-miterlimit="10" d="M228.622,331.305h248.11
	c0,0,22.556,0,22.556-11.277s0-22.556,0-22.556"/>
<path fill="#DADADA" d="M637.273,218.45l17.25,0.077c0,0,2.652,0,2.652-2.041v-9.188c0,0,0-2.041-2.652-2.041
	c-1.327,0-17.248,0-17.248,0s-2.654,0-2.654,2.041c0,1.021,0,9.188,0,9.188S634.621,218.374,637.273,218.45z"/>
<g>
	<path fill="none" stroke="#1D1D1B" stroke-width="1.2531" stroke-miterlimit="10" d="M742.496,162.28
		c15.09,29.976-4.95,53.362-4.95,53.362"/>
	<path fill="none" stroke="#1D1D1B" stroke-width="1.2531" stroke-miterlimit="10" d="M736.386,152.472
		c-2.833-3.803-6.263-7.677-10.415-11.592"/>
</g>
<g>
	<path fill="none" stroke="#1D1D1B" stroke-width="0.8316" stroke-miterlimit="10" d="M100.832,318.445
		c10.014,19.895-3.285,35.415-3.285,35.415"/>
	<path fill="none" stroke="#1D1D1B" stroke-width="0.8316" stroke-miterlimit="10" d="M96.777,311.937
		c-1.88-2.524-4.157-5.095-6.912-7.693"/>
</g>
<line fill="none" stroke="#1D1D1B" stroke-width="1.2531" stroke-miterlimit="10" x1="127.122" y1="274.917" x2="172.232" y2="274.917"/>
<line fill="none" stroke="#1D1D1B" stroke-width="1.2531" stroke-miterlimit="10" x1="127.123" y1="281.31" x2="172.233" y2="281.31"/>
<g>
	<path fill="none" stroke="#1D1D1B" stroke-width="1.2531" stroke-miterlimit="10" d="M539.312,156.394
		c7.903,7.63,4.239,17.022,4.239,17.022"/>
	<path fill="none" stroke="#1D1D1B" stroke-width="1.2531" stroke-miterlimit="10" d="M536.363,154.023
		c-1.285-0.869-2.766-1.695-4.47-2.456"/>
</g>
<line fill="none" stroke="#1D1D1B" stroke-width="1.2531" stroke-miterlimit="10" x1="578.232" y1="308.75" x2="679.733" y2="308.75"/>
<path fill="#CBE8E5" d="M304.711,218.486l80.67,0.041c0,0,12.407,0,12.407-1.093v-4.918c0,0,0-1.093-12.407-1.093
	c-6.204,0-80.664,0-80.664,0s-12.413,0-12.413,1.093c0,0.546,0,4.918,0,4.918S292.304,218.445,304.711,218.486z"/>
<path fill="#CBE8E5" d="M328.693,229.785l40.336,0.021c0,0,6.204,0,6.204-0.546v-2.459c0,0,0-0.546-6.204-0.546
	c-3.102,0-40.333,0-40.333,0s-6.207,0-6.207,0.546c0,0.273,0,2.459,0,2.459S322.489,229.764,328.693,229.785z"/>
<path fill="#CBE8E5" d="M148.249,312.281l40.337,0.021c0,0,6.203,0,6.203-0.546v-2.46c0,0,0-0.546-6.203-0.546
	c-3.102,0-40.334,0-40.334,0s-6.207,0-6.207,0.546c0,0.273,0,2.46,0,2.46S142.045,312.261,148.249,312.281z"/>
<path fill="#CBE8E5" d="M625.567,334.837l14.462,0.021c0,0,2.224,0,2.224-0.546v-2.46c0,0,0-0.547-2.224-0.547
	c-1.112,0-14.462,0-14.462,0s-2.225,0-2.225,0.547c0,0.273,0,2.46,0,2.46S623.343,334.816,625.567,334.837z"/>
<path fill="#DADADA" d="M616.379,160.527l10.653,0.013c0,0,1.639,0,1.639-0.342v-1.539c0,0,0-0.342-1.639-0.342
	c-0.818,0-10.652,0-10.652,0s-1.64,0-1.64,0.342c0,0.17,0,1.539,0,1.539S614.74,160.514,616.379,160.527z"/>
<path fill="#C6C6C6" d="M125.129,184.682l60.374,0.013c0,0,9.286,0,9.286-0.342v-1.539c0,0,0-0.342-9.286-0.342
	c-4.64,0-60.367,0-60.367,0s-9.292,0-9.292,0.342c0,0.17,0,1.539,0,1.539S115.844,184.668,125.129,184.682z"/>
<path fill="#CBE8E5" d="M510.565,154.393l14.462,0.021c0,0,2.224,0,2.224-0.546v-2.46c0,0,0-0.546-2.224-0.546
	c-1.112,0-14.462,0-14.462,0s-2.225,0-2.225,0.546c0,0.273,0,2.46,0,2.46S508.341,154.373,510.565,154.393z"/>
<ellipse fill="#1D1D1B" cx="691.01" cy="127.206" rx="1.011" ry="1.1"/>
<ellipse fill="#1D1D1B" cx="724.843" cy="309.85" rx="1.011" ry="1.1"/>
<ellipse fill="#1D1D1B" cx="126.111" cy="388.793" rx="1.011" ry="1.1"/>
<ellipse fill="#1D1D1B" cx="272.722" cy="117.028" rx="1.011" ry="1.1"/>
<ellipse fill="#1D1D1B" cx="319.854" cy="162.139" rx="1.011" ry="1.1"/>
<ellipse fill="#1D1D1B" cx="82.011" cy="217.428" rx="1.011" ry="1.099"/>
<ellipse fill="#1D1D1B" cx="748.409" cy="376.416" rx="1.011" ry="1.1"/>
</svg>
