<?xml version="1.0" encoding="utf-8"?>
<!-- Generator: Adobe Illustrator 15.0.0, SVG Export Plug-In . SVG Version: 6.00 Build 0)  -->
<!DOCTYPE svg PUBLIC "-//W3C//DTD SVG 1.1//EN" "http://www.w3.org/Graphics/SVG/1.1/DTD/svg11.dtd">
<svg version="1.1" id="Ebene_1" xmlns="http://www.w3.org/2000/svg" xmlns:xlink="http://www.w3.org/1999/xlink" x="0px" y="0px"
	 width="841.89px" height="595.28px" viewBox="0 0 841.89 595.28" enable-background="new 0 0 841.89 595.28" xml:space="preserve">
<path fill="#EDEDED" stroke="#1D1D1B" stroke-width="0.7906" stroke-miterlimit="10" d="M409.959,157.323v-4.5c0,0,0-4.5,11.25-4.5
	c11.251,0,22.501,0,22.501,0s11.25,0,11.25,4.5s0,4.5,0,4.5"/>
<path fill="#B4CECB" stroke="#1D1D1B" stroke-miterlimit="10" d="M360,216c0,0,18-63,72-63s72,63,72,63H360z"/>
<path fill="#EDEDED" stroke="#1D1D1B" stroke-miterlimit="10" d="M396,216c0,0,0-63,37.285-63c0,0,34.715,0,34.715,63"/>
<rect x="360" y="225" fill="#F6F6F6" width="144" height="72"/>
<path fill="none" stroke="#1D1D1B" stroke-width="0.7906" stroke-miterlimit="10" d="M531,144"/>
<rect x="414" y="116" fill="#F6F6F6" stroke="#1D1D1B" stroke-width="1.2172" stroke-miterlimit="10" width="36" height="32"/>
<line fill="none" stroke="#1D1D1B" stroke-width="1.2172" stroke-miterlimit="10" x1="405" y1="117" x2="459" y2="117"/>
<path fill="#B4CECB" stroke="#1D1D1B" stroke-width="0.7297" stroke-miterlimit="10" d="M414,117c0,0,0-23,18-23
	s18,22.148,18,22.148"/>
<line fill="none" stroke="#1D1D1B" stroke-width="0.8661" stroke-miterlimit="10" x1="432" y1="94" x2="432" y2="63"/>
<circle fill="none" stroke="#1D1D1B" stroke-width="0.7297" stroke-miterlimit="10" cx="432" cy="82.54" r="4.5"/>
<line fill="none" stroke="#1D1D1B" stroke-width="0.7639" stroke-miterlimit="10" x1="428.401" y1="70" x2="435.401" y2="70"/>
<path fill="#F6F6F6" stroke="#1D1D1B" stroke-width="0.8367" stroke-miterlimit="10" d="M436.403,143.5h7c0,0,1.75,0,1.75-2.5
	s0-17.5,0-17.5s0-2.5-1.75-2.5s-5.25,0-5.25,0h-1.75c0,0-1.75,0-1.75,2.5s0,17.5,0,17.5S434.653,143.5,436.403,143.5z"/>
<path fill="#F6F6F6" stroke="#1D1D1B" stroke-width="0.8367" stroke-miterlimit="10" d="M420.403,143.5h7c0,0,1.75,0,1.75-2.5
	s0-17.5,0-17.5s0-2.5-1.75-2.5s-5.25,0-5.25,0h-1.75c0,0-1.75,0-1.75,2.5s0,17.5,0,17.5S418.653,143.5,420.403,143.5z"/>
<rect x="360" y="216" fill="#B4CECB" stroke="#1D1D1B" stroke-width="0.8367" stroke-miterlimit="10" width="144" height="9"/>
<line fill="none" stroke="#1D1D1B" stroke-width="0.8367" stroke-miterlimit="10" x1="360" y1="285.314" x2="360" y2="225"/>
<line fill="none" stroke="#1D1D1B" stroke-width="0.8367" stroke-miterlimit="10" x1="504" y1="289.611" x2="504" y2="225"/>
<path fill="#F6F6F6" stroke="#1D1D1B" stroke-miterlimit="10" d="M323.1,296.5v-37.2c0,0,9.3-4.65,9.3-9.3s0-4.65,0-4.65
	s-4.65,0-4.65-4.65c0-4.65,4.65-4.65,4.65-4.65v-4.65l4.65-4.65l4.65,4.65v4.65c0,0,4.649,0,4.649,4.65
	c0,4.65-4.649,4.65-4.649,4.65V250c0,0,4.649,9.3,9.3,9.3v37.2H323.1z"/>
<path fill="#F6F6F6" stroke="#1D1D1B" stroke-miterlimit="10" d="M513.1,297v-37.2c0,0,9.301-4.65,9.301-9.3s0-4.65,0-4.65
	s-4.65,0-4.65-4.65c0-4.65,4.65-4.65,4.65-4.65v-4.65l4.65-4.65l4.649,4.65v4.65c0,0,4.649,0,4.649,4.65
	c0,4.65-4.649,4.65-4.649,4.65v4.65c0,0,4.649,9.3,9.3,9.3V297H513.1z"/>
<path fill="#EDEDED" stroke="#1D1D1B" stroke-width="0.9303" stroke-miterlimit="10" d="M411.625,282.472v-81.788
	c0,0,10.125-5.842,15.188-11.684h10.125c0,0,10.125,11.684,15.188,11.684v81.788C411.625,282.472,411.625,282.472,411.625,282.472z"
	/>
<line fill="none" stroke="#1D1D1B" stroke-width="0.6667" stroke-miterlimit="10" x1="424.205" y1="274" x2="442.205" y2="274"/>
<line fill="none" stroke="#1D1D1B" stroke-width="0.6667" stroke-miterlimit="10" x1="424.205" y1="276.969" x2="442.205" y2="276.969"/>
<path fill="#B4CECB" stroke="#1D1D1B" stroke-width="0.6901" stroke-miterlimit="10" d="M323.1,296.5l-16.458,0.5c0,0,0,9-9.643,9
	v135h270V306c0,0-9.644,0-9.644-9H541"/>
<path fill="#B4CECB" stroke="#1D1D1B" stroke-width="0.9907" stroke-miterlimit="10" d="M406,416.5h54V301.667
	c0,0-9.539-15.167-26.54-15.167S406,301.667,406,301.667V416.5z"/>
<circle fill="#EDEDED" stroke="#1D1D1B" stroke-miterlimit="10" cx="432.46" cy="309" r="12"/>
<polyline fill="none" stroke="#1D1D1B" stroke-width="0.935" stroke-miterlimit="10" points="333,305.973 333,416.5 376,416.5 
	376,305.973 "/>
<polyline fill="none" stroke="#1D1D1B" stroke-width="0.9393" stroke-miterlimit="10" points="487.507,306.445 487.507,416.5 
	530.079,416.5 530.079,306.445 "/>
<polyline fill="none" stroke="#1D1D1B" stroke-width="0.9711" stroke-miterlimit="10" points="297,414.5 336,414.5 405,414.5 
	491.072,414.5 567,414.5 "/>
<line fill="none" stroke="#1D1D1B" stroke-width="0.9711" stroke-miterlimit="10" x1="297" y1="416.5" x2="567" y2="416.5"/>
<path fill="#F6F6F6" stroke="#1D1D1B" stroke-width="0.9619" stroke-miterlimit="10" d="M345.669,414.5h20v-60.693
	c0,0-3.333-7.307-10-7.307s-10,7.307-10,7.307V414.5z"/>
<path fill="#F6F6F6" stroke="#1D1D1B" stroke-width="1.1781" stroke-miterlimit="10" d="M419.968,414h23.654v-76.981
	c0,0-3.941-9.269-11.827-9.269c-7.885,0-11.827,9.269-11.827,9.269V414z"/>
<path fill="#F6F6F6" stroke="#1D1D1B" stroke-width="0.9619" stroke-miterlimit="10" d="M498.74,414h20v-60.693
	c0,0-3.333-7.307-10-7.307s-10,7.307-10,7.307V414z"/>
<path fill="#F6F6F6" stroke="#1D1D1B" stroke-width="0.9619" stroke-miterlimit="10" d="M382,414.5h20v-60.693
	c0,0-3.333-7.307-10-7.307s-10,7.307-10,7.307V414.5z"/>
<path fill="#F6F6F6" stroke="#1D1D1B" stroke-width="0.9619" stroke-miterlimit="10" d="M463.307,414.5h20v-60.693
	c0,0-3.332-7.307-10-7.307c-6.666,0-10,7.307-10,7.307V414.5z"/>
<path fill="#DADADA" stroke="#1D1D1B" stroke-miterlimit="10" d="M425.111,441h12.777v-18.399c0,0-2.13-4.601-6.389-4.601
	c-4.26,0-6.389,4.601-6.389,4.601V441z"/>
<path fill="#EDEDED" stroke="#1D1D1B" stroke-miterlimit="10" d="M387.424,435.736h9.151V422.56c0,0-1.525-3.296-4.576-3.296
	c-3.051,0-4.576,3.296-4.576,3.296V435.736z"/>
<path fill="#F6F6F6" stroke="#1D1D1B" stroke-miterlimit="10" d="M352.924,435.736h9.152V422.56c0,0-1.525-3.296-4.576-3.296
	s-4.576,3.296-4.576,3.296V435.736z"/>
<path fill="#EDEDED" stroke="#1D1D1B" stroke-miterlimit="10" d="M472.069,435.736h9.151V422.56c0,0-1.525-3.296-4.576-3.296
	s-4.575,3.296-4.575,3.296V435.736z"/>
<path fill="#EDEDED" stroke="#1D1D1B" stroke-miterlimit="10" d="M511.424,435.736h9.152V422.56c0,0-1.525-3.296-4.576-3.296
	s-4.576,3.296-4.576,3.296V435.736z"/>
<line fill="none" stroke="#1D1D1B" stroke-miterlimit="10" x1="297" y1="315" x2="324" y2="315"/>
<line fill="none" stroke="#1D1D1B" stroke-miterlimit="10" x1="567" y1="315" x2="540" y2="315"/>
<path fill="#EDEDED" stroke="#1D1D1B" stroke-miterlimit="10" d="M369.223,279H387v-25.599c0,0-2.963-6.401-8.889-6.401
	c-5.927,0-8.889,6.401-8.889,6.401V279z"/>
<path fill="#EDEDED" stroke="#1D1D1B" stroke-miterlimit="10" d="M477,279h17.777v-25.599c0,0-2.963-6.401-8.889-6.401
	c-5.927,0-8.889,6.401-8.889,6.401V279z"/>
<polyline fill="none" stroke="#1D1D1B" stroke-width="0.8333" stroke-miterlimit="10" points="354.685,252 377.185,237 399.685,252 
	"/>
<polyline fill="none" stroke="#1D1D1B" stroke-width="0.8333" stroke-miterlimit="10" points="462.402,249 484.902,234 507.402,249 
	"/>
<polyline fill="#B4CECB" stroke="#1D1D1B" stroke-width="1.1667" stroke-miterlimit="10" points="324,303 355.5,282 387,303 "/>
<polyline fill="#B4CECB" stroke="#1D1D1B" stroke-width="1.1667" stroke-miterlimit="10" points="477,303.308 508.5,282.307 
	540,303.308 "/>
<circle fill="#EDEDED" stroke="#1D1D1B" stroke-miterlimit="10" cx="355.5" cy="306" r="12"/>
<circle fill="#EDEDED" stroke="#1D1D1B" stroke-miterlimit="10" cx="510" cy="304" r="12"/>
<circle fill="#FFFFFF" stroke="#1D1D1B" stroke-width="0.8333" stroke-miterlimit="10" cx="431.5" cy="219.5" r="7.5"/>
<path fill="#F6F6F6" stroke="#1D1D1B" stroke-miterlimit="10" d="M423,270.464h20v-28.8c0,0-3.333-7.2-10-7.2s-10,7.2-10,7.2
	V270.464z"/>
<line fill="none" stroke="#1D1D1B" stroke-miterlimit="10" x1="297" y1="317.479" x2="324" y2="317.479"/>
<line fill="none" stroke="#1D1D1B" stroke-miterlimit="10" x1="540" y1="317.48" x2="567" y2="317.48"/>
<g>
	<path fill="none" stroke="#1D1D1B" stroke-miterlimit="10" d="M360.182,114.121C356.734,140.68,378,153,378,153"/>
	<path fill="none" stroke="#1D1D1B" stroke-miterlimit="10" d="M362.194,105.121c1.128-3.612,2.689-7.435,4.782-11.48"/>
</g>
<ellipse fill="#1D1D1B" cx="369.833" cy="89.427" rx="0.807" ry="0.877"/>
<ellipse fill="#1D1D1B" cx="359.804" cy="189.877" rx="0.807" ry="0.877"/>
<ellipse fill="#1D1D1B" cx="571.5" cy="235.736" rx="0.807" ry="0.877"/>
<ellipse fill="#1D1D1B" cx="490.693" cy="74.5" rx="0.807" ry="0.877"/>
<ellipse fill="#1D1D1B" cx="277.5" cy="333" rx="0.807" ry="0.877"/>
</svg>
