<svg width="258" height="326" viewBox="0 0 258 326" fill="none" xmlns="http://www.w3.org/2000/svg">
<g filter="url(#filter0_d)">
<rect x="4" width="249.775" height="318" rx="11" fill="#B4CECB"/>
<path d="M60.98 204H66.34V204.76C66.1133 204.907 65.8533 205.033 65.56 205.14C65.2667 205.233 65 205.3 64.76 205.34L60.96 210.16C61.2667 210.587 61.6267 211.073 62.04 211.62C62.4533 212.153 62.8933 212.713 63.36 213.3C63.8267 213.873 64.3067 214.46 64.8 215.06C65.2933 215.647 65.7733 216.207 66.24 216.74L67.2 217.32V218H63.72L62.92 217.44C62.6 217.04 62.26 216.6 61.9 216.12C61.5533 215.627 61.2067 215.12 60.86 214.6C60.5133 214.067 60.1733 213.533 59.84 213C59.5067 212.467 59.1933 211.947 58.9 211.44H58.04V216.66C58.3333 216.713 58.6 216.793 58.84 216.9C59.08 217.007 59.2867 217.12 59.46 217.24V218H53.4V217.24C53.6667 217.107 53.94 216.993 54.22 216.9C54.5 216.793 54.7733 216.713 55.04 216.66V205.34C54.7333 205.3 54.4333 205.227 54.14 205.12C53.86 205.013 53.6133 204.893 53.4 204.76V204H59.46V204.76C59.2867 204.867 59.0733 204.973 58.82 205.08C58.58 205.187 58.32 205.273 58.04 205.34V210.42L59.22 210.14L62.44 205.34C62.1733 205.287 61.9067 205.207 61.64 205.1C61.3867 204.98 61.1667 204.867 60.98 204.76V204ZM76.5992 215.1C76.5992 215.393 76.5992 215.647 76.5992 215.86C76.6126 216.073 76.6326 216.3 76.6592 216.54L78.0392 216.74V217.44C77.8792 217.52 77.6592 217.6 77.3792 217.68C77.1126 217.76 76.8259 217.84 76.5192 217.92C76.2259 217.987 75.9326 218.04 75.6392 218.08C75.3459 218.133 75.0859 218.173 74.8592 218.2H74.1792C74.0459 217.893 73.9659 217.587 73.9392 217.28C73.9126 216.973 73.8926 216.6 73.8792 216.16H73.7792C73.7126 216.427 73.5992 216.687 73.4392 216.94C73.2792 217.18 73.0726 217.4 72.8192 217.6C72.5792 217.787 72.2926 217.94 71.9592 218.06C71.6259 218.18 71.2526 218.24 70.8392 218.24C70.3992 218.24 69.9926 218.173 69.6192 218.04C69.2459 217.907 68.9192 217.72 68.6392 217.48C68.3592 217.24 68.1392 216.953 67.9792 216.62C67.8192 216.273 67.7392 215.887 67.7392 215.46C67.7392 214.86 67.8526 214.367 68.0792 213.98C68.3059 213.593 68.6592 213.28 69.1392 213.04C69.6326 212.787 70.2592 212.6 71.0192 212.48C71.7926 212.36 72.7259 212.273 73.8192 212.22C73.9259 211.073 73.8792 210.233 73.6792 209.7C73.4792 209.167 73.0459 208.9 72.3792 208.9C71.9659 208.9 71.5859 208.967 71.2392 209.1L70.2992 211.5H69.4192C69.3126 211.34 69.2059 211.16 69.0992 210.96C69.0059 210.747 68.9126 210.527 68.8192 210.3C68.7392 210.06 68.6659 209.82 68.5992 209.58C68.5459 209.34 68.5059 209.107 68.4792 208.88C68.9859 208.533 69.6392 208.26 70.4392 208.06C71.2392 207.86 72.0859 207.76 72.9792 207.76C73.7392 207.76 74.3592 207.847 74.8392 208.02C75.3192 208.18 75.6926 208.407 75.9592 208.7C76.2392 208.98 76.4326 209.313 76.5392 209.7C76.6459 210.087 76.6992 210.5 76.6992 210.94C76.6992 211.74 76.6792 212.467 76.6392 213.12C76.6126 213.76 76.5992 214.42 76.5992 215.1ZM72.0992 216.64C72.3792 216.64 72.6192 216.587 72.8192 216.48C73.0192 216.373 73.1859 216.247 73.3192 216.1C73.4659 215.953 73.5726 215.793 73.6392 215.62C73.7192 215.447 73.7792 215.293 73.8192 215.16V213.16C73.1926 213.173 72.6792 213.213 72.2792 213.28C71.8792 213.347 71.5659 213.46 71.3392 213.62C71.1126 213.767 70.9526 213.96 70.8592 214.2C70.7792 214.427 70.7392 214.707 70.7392 215.04C70.7392 215.547 70.8592 215.94 71.0992 216.22C71.3392 216.5 71.6726 216.64 72.0992 216.64ZM79.752 214.04C79.752 213.2 79.772 212.42 79.812 211.7C79.852 210.98 79.872 210.22 79.872 209.42L78.552 209.26V208.48C78.7654 208.4 79.0254 208.32 79.332 208.24C79.652 208.16 79.9787 208.093 80.312 208.04C80.6454 207.973 80.9654 207.92 81.272 207.88C81.592 207.827 81.8587 207.787 82.072 207.76H82.752C82.752 208.76 82.732 209.747 82.692 210.72C82.652 211.68 82.632 212.627 82.632 213.56C82.632 214.653 82.7387 215.44 82.952 215.92C83.1787 216.4 83.592 216.64 84.192 216.64C84.6054 216.64 84.9854 216.487 85.332 216.18C85.692 215.86 85.9854 215.353 86.212 214.66V209.42L84.912 209.26V208.48C85.112 208.4 85.3587 208.32 85.652 208.24C85.9587 208.16 86.272 208.093 86.592 208.04C86.9254 207.973 87.252 207.92 87.572 207.88C87.892 207.827 88.172 207.787 88.412 207.76H89.092V216.58L90.412 216.74V217.44C90.2254 217.52 89.992 217.6 89.712 217.68C89.432 217.76 89.1387 217.84 88.832 217.92C88.5254 217.987 88.2187 218.04 87.912 218.08C87.6187 218.133 87.352 218.173 87.112 218.2H86.432L86.292 215.82H86.212C86.1454 216.1 86.0254 216.387 85.852 216.68C85.6787 216.96 85.452 217.22 85.172 217.46C84.9054 217.687 84.5854 217.873 84.212 218.02C83.8387 218.167 83.4254 218.24 82.972 218.24C82.4654 218.24 82.012 218.173 81.612 218.04C81.2254 217.92 80.892 217.7 80.612 217.38C80.332 217.06 80.1187 216.633 79.972 216.1C79.8254 215.553 79.752 214.867 79.752 214.04ZM97.1934 202.96C97.7401 202.96 98.2268 203.013 98.6534 203.12C99.0934 203.213 99.4268 203.307 99.6534 203.4C99.6134 203.84 99.5268 204.293 99.3934 204.76C99.2601 205.227 99.1401 205.613 99.0334 205.92H98.3534L97.4734 204.02C97.1268 204.02 96.8334 204.06 96.5934 204.14C96.3668 204.207 96.1801 204.347 96.0334 204.56C95.9001 204.773 95.8001 205.08 95.7334 205.48C95.6668 205.867 95.6334 206.373 95.6334 207V208H97.7534V209.26H95.6334V216.74C96.3268 216.82 96.9668 216.98 97.5534 217.22V218H91.4334V217.22C91.8468 216.98 92.2868 216.82 92.7534 216.74V209.26H91.2334V208.48C91.7001 208.187 92.2068 207.967 92.7534 207.82V207.12C92.7534 206.293 92.8668 205.613 93.0934 205.08C93.3334 204.533 93.6534 204.107 94.0534 203.8C94.4534 203.48 94.9201 203.26 95.4534 203.14C96.0001 203.02 96.5801 202.96 97.1934 202.96ZM110.775 218H105.475V217.22C105.635 217.127 105.802 217.04 105.975 216.96C106.148 216.88 106.348 216.807 106.575 216.74V212.7C106.575 211.553 106.462 210.713 106.235 210.18C106.022 209.633 105.595 209.36 104.955 209.36C104.422 209.36 103.968 209.547 103.595 209.92C103.222 210.28 102.955 210.7 102.795 211.18V216.74C103.008 216.793 103.195 216.853 103.355 216.92C103.528 216.987 103.708 217.087 103.895 217.22V218H98.5948V217.22C99.0082 217.007 99.4482 216.847 99.9148 216.74V204.62L98.3948 204.46V203.68C98.5948 203.6 98.8482 203.52 99.1548 203.44C99.4748 203.36 99.8082 203.293 100.155 203.24C100.502 203.173 100.848 203.12 101.195 203.08C101.542 203.027 101.848 202.987 102.115 202.96H102.795V210.02H102.815C102.948 209.713 103.128 209.427 103.355 209.16C103.582 208.88 103.835 208.64 104.115 208.44C104.408 208.227 104.722 208.06 105.055 207.94C105.388 207.82 105.742 207.76 106.115 207.76C106.648 207.76 107.122 207.827 107.535 207.96C107.962 208.08 108.315 208.3 108.595 208.62C108.875 208.94 109.088 209.373 109.235 209.92C109.382 210.453 109.455 211.133 109.455 211.96V216.74C109.682 216.793 109.908 216.853 110.135 216.92C110.362 216.987 110.575 217.087 110.775 217.22V218ZM120.408 215.1C120.408 215.393 120.408 215.647 120.408 215.86C120.421 216.073 120.441 216.3 120.468 216.54L121.848 216.74V217.44C121.688 217.52 121.468 217.6 121.188 217.68C120.921 217.76 120.634 217.84 120.328 217.92C120.034 217.987 119.741 218.04 119.448 218.08C119.154 218.133 118.894 218.173 118.668 218.2H117.988C117.854 217.893 117.774 217.587 117.748 217.28C117.721 216.973 117.701 216.6 117.688 216.16H117.588C117.521 216.427 117.408 216.687 117.248 216.94C117.088 217.18 116.881 217.4 116.628 217.6C116.388 217.787 116.101 217.94 115.768 218.06C115.434 218.18 115.061 218.24 114.648 218.24C114.208 218.24 113.801 218.173 113.428 218.04C113.054 217.907 112.728 217.72 112.448 217.48C112.168 217.24 111.948 216.953 111.788 216.62C111.628 216.273 111.548 215.887 111.548 215.46C111.548 214.86 111.661 214.367 111.888 213.98C112.114 213.593 112.468 213.28 112.948 213.04C113.441 212.787 114.068 212.6 114.828 212.48C115.601 212.36 116.534 212.273 117.628 212.22C117.734 211.073 117.688 210.233 117.488 209.7C117.288 209.167 116.854 208.9 116.188 208.9C115.774 208.9 115.394 208.967 115.048 209.1L114.108 211.5H113.228C113.121 211.34 113.014 211.16 112.908 210.96C112.814 210.747 112.721 210.527 112.628 210.3C112.548 210.06 112.474 209.82 112.408 209.58C112.354 209.34 112.314 209.107 112.288 208.88C112.794 208.533 113.448 208.26 114.248 208.06C115.048 207.86 115.894 207.76 116.788 207.76C117.548 207.76 118.168 207.847 118.648 208.02C119.128 208.18 119.501 208.407 119.768 208.7C120.048 208.98 120.241 209.313 120.348 209.7C120.454 210.087 120.508 210.5 120.508 210.94C120.508 211.74 120.488 212.467 120.448 213.12C120.421 213.76 120.408 214.42 120.408 215.1ZM115.908 216.64C116.188 216.64 116.428 216.587 116.628 216.48C116.828 216.373 116.994 216.247 117.128 216.1C117.274 215.953 117.381 215.793 117.448 215.62C117.528 215.447 117.588 215.293 117.628 215.16V213.16C117.001 213.173 116.488 213.213 116.088 213.28C115.688 213.347 115.374 213.46 115.148 213.62C114.921 213.767 114.761 213.96 114.668 214.2C114.588 214.427 114.548 214.707 114.548 215.04C114.548 215.547 114.668 215.94 114.908 216.22C115.148 216.5 115.481 216.64 115.908 216.64ZM123.561 214.04C123.561 213.2 123.581 212.42 123.621 211.7C123.661 210.98 123.681 210.22 123.681 209.42L122.361 209.26V208.48C122.574 208.4 122.834 208.32 123.141 208.24C123.461 208.16 123.787 208.093 124.121 208.04C124.454 207.973 124.774 207.92 125.081 207.88C125.401 207.827 125.667 207.787 125.881 207.76H126.561C126.561 208.76 126.541 209.747 126.501 210.72C126.461 211.68 126.441 212.627 126.441 213.56C126.441 214.653 126.547 215.44 126.761 215.92C126.987 216.4 127.401 216.64 128.001 216.64C128.414 216.64 128.794 216.487 129.141 216.18C129.501 215.86 129.794 215.353 130.021 214.66V209.42L128.721 209.26V208.48C128.921 208.4 129.167 208.32 129.461 208.24C129.767 208.16 130.081 208.093 130.401 208.04C130.734 207.973 131.061 207.92 131.381 207.88C131.701 207.827 131.981 207.787 132.221 207.76H132.901V216.58L134.221 216.74V217.44C134.034 217.52 133.801 217.6 133.521 217.68C133.241 217.76 132.947 217.84 132.641 217.92C132.334 217.987 132.027 218.04 131.721 218.08C131.427 218.133 131.161 218.173 130.921 218.2H130.241L130.101 215.82H130.021C129.954 216.1 129.834 216.387 129.661 216.68C129.487 216.96 129.261 217.22 128.981 217.46C128.714 217.687 128.394 217.873 128.021 218.02C127.647 218.167 127.234 218.24 126.781 218.24C126.274 218.24 125.821 218.173 125.421 218.04C125.034 217.92 124.701 217.7 124.421 217.38C124.141 217.06 123.927 216.633 123.781 216.1C123.634 215.553 123.561 214.867 123.561 214.04ZM140.342 215.82C140.342 215.473 140.215 215.173 139.962 214.92C139.722 214.667 139.415 214.433 139.042 214.22C138.682 214.007 138.282 213.793 137.842 213.58C137.415 213.367 137.015 213.12 136.642 212.84C136.282 212.547 135.975 212.207 135.722 211.82C135.482 211.433 135.362 210.96 135.362 210.4C135.362 210 135.455 209.64 135.642 209.32C135.829 208.987 136.082 208.707 136.402 208.48C136.722 208.253 137.102 208.08 137.542 207.96C137.995 207.827 138.482 207.76 139.002 207.76C139.722 207.76 140.389 207.82 141.002 207.94C141.629 208.047 142.175 208.2 142.642 208.4C142.589 208.827 142.482 209.287 142.322 209.78C142.162 210.26 142.009 210.7 141.862 211.1H141.182L140.342 209.06C140.182 208.993 140.015 208.953 139.842 208.94C139.669 208.913 139.475 208.9 139.262 208.9C138.862 208.9 138.555 209.02 138.342 209.26C138.142 209.487 138.042 209.747 138.042 210.04C138.042 210.373 138.162 210.667 138.402 210.92C138.655 211.16 138.962 211.387 139.322 211.6C139.695 211.813 140.095 212.027 140.522 212.24C140.962 212.453 141.362 212.7 141.722 212.98C142.095 213.247 142.402 213.567 142.642 213.94C142.895 214.313 143.022 214.76 143.022 215.28C143.022 216.2 142.649 216.927 141.902 217.46C141.155 217.98 140.155 218.24 138.902 218.24C138.262 218.24 137.602 218.173 136.922 218.04C136.242 217.907 135.655 217.72 135.162 217.48C135.189 217 135.302 216.513 135.502 216.02C135.702 215.527 135.915 215.087 136.142 214.7H136.822L137.802 216.88C137.949 216.987 138.109 217.053 138.282 217.08C138.469 217.093 138.642 217.1 138.802 217.1C139.189 217.1 139.542 216.987 139.862 216.76C140.182 216.533 140.342 216.22 140.342 215.82ZM154.056 216.66C154.362 216.727 154.636 216.813 154.876 216.92C155.116 217.027 155.349 217.133 155.576 217.24V218H149.416V217.24C149.709 217.08 149.989 216.96 150.256 216.88C150.522 216.787 150.789 216.713 151.056 216.66V205.34C150.389 205.193 149.842 205 149.416 204.76V204H151.536C151.802 204 152.102 203.993 152.436 203.98C152.782 203.967 153.142 203.953 153.516 203.94C153.889 203.913 154.269 203.893 154.656 203.88C155.042 203.853 155.416 203.84 155.776 203.84C156.509 203.84 157.182 203.927 157.796 204.1C158.422 204.26 158.956 204.507 159.396 204.84C159.849 205.173 160.196 205.593 160.436 206.1C160.689 206.593 160.816 207.173 160.816 207.84C160.816 208.8 160.582 209.587 160.116 210.2C159.649 210.813 159.009 211.273 158.196 211.58C158.729 212.42 159.296 213.28 159.896 214.16C160.496 215.027 161.129 215.867 161.796 216.68L162.756 217.32V218H159.416L158.556 217.34C157.942 216.607 157.396 215.76 156.916 214.8C156.449 213.827 156.036 212.873 155.676 211.94H154.056V216.66ZM155.056 205.14C154.642 205.14 154.309 205.18 154.056 205.26V210.84H155.236C155.916 210.84 156.496 210.6 156.976 210.12C157.456 209.627 157.696 208.9 157.696 207.94C157.696 207.447 157.629 207.027 157.496 206.68C157.362 206.32 157.176 206.027 156.936 205.8C156.696 205.573 156.416 205.407 156.096 205.3C155.776 205.193 155.429 205.14 155.056 205.14ZM172.193 216.32C172.086 216.547 171.913 216.78 171.673 217.02C171.446 217.247 171.159 217.453 170.813 217.64C170.479 217.813 170.086 217.953 169.633 218.06C169.193 218.18 168.713 218.24 168.193 218.24C167.366 218.24 166.633 218.12 165.993 217.88C165.353 217.627 164.819 217.273 164.393 216.82C163.966 216.353 163.639 215.8 163.413 215.16C163.199 214.52 163.093 213.8 163.093 213C163.093 211.293 163.539 209.993 164.433 209.1C165.326 208.207 166.566 207.76 168.153 207.76C168.833 207.76 169.466 207.853 170.053 208.04C170.653 208.227 171.146 208.533 171.533 208.96C171.933 209.387 172.206 209.947 172.353 210.64C172.513 211.333 172.506 212.18 172.333 213.18H166.193C166.206 214.233 166.473 215.073 166.993 215.7C167.526 216.327 168.306 216.64 169.333 216.64C169.773 216.64 170.226 216.573 170.693 216.44C171.173 216.307 171.546 216.133 171.813 215.92L172.193 216.32ZM168.073 208.9C167.806 208.9 167.566 208.947 167.353 209.04C167.153 209.133 166.973 209.307 166.813 209.56C166.666 209.8 166.546 210.133 166.453 210.56C166.359 210.973 166.293 211.5 166.253 212.14H169.473C169.566 211.1 169.506 210.3 169.293 209.74C169.079 209.18 168.673 208.9 168.073 208.9ZM181.195 204H186.555V204.76C186.328 204.907 186.068 205.033 185.775 205.14C185.482 205.233 185.215 205.3 184.975 205.34L181.175 210.16C181.482 210.587 181.842 211.073 182.255 211.62C182.668 212.153 183.108 212.713 183.575 213.3C184.042 213.873 184.522 214.46 185.015 215.06C185.508 215.647 185.988 216.207 186.455 216.74L187.415 217.32V218H183.935L183.135 217.44C182.815 217.04 182.475 216.6 182.115 216.12C181.768 215.627 181.422 215.12 181.075 214.6C180.728 214.067 180.388 213.533 180.055 213C179.722 212.467 179.408 211.947 179.115 211.44H178.255V216.66C178.548 216.713 178.815 216.793 179.055 216.9C179.295 217.007 179.502 217.12 179.675 217.24V218H173.615V217.24C173.882 217.107 174.155 216.993 174.435 216.9C174.715 216.793 174.988 216.713 175.255 216.66V205.34C174.948 205.3 174.648 205.227 174.355 205.12C174.075 205.013 173.828 204.893 173.615 204.76V204H179.675V204.76C179.502 204.867 179.288 204.973 179.035 205.08C178.795 205.187 178.535 205.273 178.255 205.34V210.42L179.435 210.14L182.655 205.34C182.388 205.287 182.122 205.207 181.855 205.1C181.602 204.98 181.382 204.867 181.195 204.76V204ZM196.814 215.1C196.814 215.393 196.814 215.647 196.814 215.86C196.827 216.073 196.847 216.3 196.874 216.54L198.254 216.74V217.44C198.094 217.52 197.874 217.6 197.594 217.68C197.327 217.76 197.041 217.84 196.734 217.92C196.441 217.987 196.147 218.04 195.854 218.08C195.561 218.133 195.301 218.173 195.074 218.2H194.394C194.261 217.893 194.181 217.587 194.154 217.28C194.127 216.973 194.107 216.6 194.094 216.16H193.994C193.927 216.427 193.814 216.687 193.654 216.94C193.494 217.18 193.287 217.4 193.034 217.6C192.794 217.787 192.507 217.94 192.174 218.06C191.841 218.18 191.467 218.24 191.054 218.24C190.614 218.24 190.207 218.173 189.834 218.04C189.461 217.907 189.134 217.72 188.854 217.48C188.574 217.24 188.354 216.953 188.194 216.62C188.034 216.273 187.954 215.887 187.954 215.46C187.954 214.86 188.067 214.367 188.294 213.98C188.521 213.593 188.874 213.28 189.354 213.04C189.847 212.787 190.474 212.6 191.234 212.48C192.007 212.36 192.941 212.273 194.034 212.22C194.141 211.073 194.094 210.233 193.894 209.7C193.694 209.167 193.261 208.9 192.594 208.9C192.181 208.9 191.801 208.967 191.454 209.1L190.514 211.5H189.634C189.527 211.34 189.421 211.16 189.314 210.96C189.221 210.747 189.127 210.527 189.034 210.3C188.954 210.06 188.881 209.82 188.814 209.58C188.761 209.34 188.721 209.107 188.694 208.88C189.201 208.533 189.854 208.26 190.654 208.06C191.454 207.86 192.301 207.76 193.194 207.76C193.954 207.76 194.574 207.847 195.054 208.02C195.534 208.18 195.907 208.407 196.174 208.7C196.454 208.98 196.647 209.313 196.754 209.7C196.861 210.087 196.914 210.5 196.914 210.94C196.914 211.74 196.894 212.467 196.854 213.12C196.827 213.76 196.814 214.42 196.814 215.1ZM192.314 216.64C192.594 216.64 192.834 216.587 193.034 216.48C193.234 216.373 193.401 216.247 193.534 216.1C193.681 215.953 193.787 215.793 193.854 215.62C193.934 215.447 193.994 215.293 194.034 215.16V213.16C193.407 213.173 192.894 213.213 192.494 213.28C192.094 213.347 191.781 213.46 191.554 213.62C191.327 213.767 191.167 213.96 191.074 214.2C190.994 214.427 190.954 214.707 190.954 215.04C190.954 215.547 191.074 215.94 191.314 216.22C191.554 216.5 191.887 216.64 192.314 216.64Z" fill="#0D706A"/>
<g filter="url(#filter1_d)">
<path d="M169.36 77.3339C169.36 98.3304 151.24 115.351 128.887 115.351C106.535 115.351 88.4146 98.3304 88.4146 77.3339C88.4146 56.3374 106.535 39.3163 128.887 39.3163C151.24 39.3163 169.36 56.3374 169.36 77.3339Z" fill="#0D706A"/>
<path d="M135.899 169.219C133.528 175.265 124.932 175.329 122.469 169.32L92.4453 96.0528C90.5211 91.3571 93.978 86.2158 99.0853 86.1774L158.011 85.7344C163.118 85.696 166.653 90.7847 164.801 95.5088L135.899 169.219Z" fill="#0D706A"/>
<ellipse cx="128.888" cy="81.0946" rx="18.278" ry="16.9724" fill="#B4CECB"/>
</g>
</g>
<g filter="url(#filter2_d)">
<path d="M149.612 264.761C153.714 267.05 153.714 272.95 149.612 275.239L122.924 290.134C118.925 292.366 114 289.475 114 284.895V255.105C114 250.525 118.925 247.634 122.924 249.866L149.612 264.761Z" fill="#CBE8E5"/>
</g>
<g filter="url(#filter3_d)">
<rect width="18.3322" height="2.15704" rx="1.07852" transform="matrix(0.697203 -0.716873 0.564998 0.825092 223 25.1418)" fill="#0D706A" fill-opacity="0.37"/>
<rect width="18.3322" height="2.15704" rx="1.07852" transform="matrix(0.697203 0.716873 -0.564998 0.825092 224.219 12.0001)" fill="#0D706A" fill-opacity="0.37"/>
</g>
<defs>
<filter id="filter0_d" x="0" y="0" width="257.775" height="326" filterUnits="userSpaceOnUse" color-interpolation-filters="sRGB">
<feFlood flood-opacity="0" result="BackgroundImageFix"/>
<feColorMatrix in="SourceAlpha" type="matrix" values="0 0 0 0 0 0 0 0 0 0 0 0 0 0 0 0 0 0 127 0"/>
<feOffset dy="4"/>
<feGaussianBlur stdDeviation="2"/>
<feColorMatrix type="matrix" values="0 0 0 0 0 0 0 0 0 0 0 0 0 0 0 0 0 0 0.25 0"/>
<feBlend mode="normal" in2="BackgroundImageFix" result="effect1_dropShadow"/>
<feBlend mode="normal" in="SourceGraphic" in2="effect1_dropShadow" result="shape"/>
</filter>
<filter id="filter1_d" x="84.4146" y="39.3163" width="88.9455" height="142.474" filterUnits="userSpaceOnUse" color-interpolation-filters="sRGB">
<feFlood flood-opacity="0" result="BackgroundImageFix"/>
<feColorMatrix in="SourceAlpha" type="matrix" values="0 0 0 0 0 0 0 0 0 0 0 0 0 0 0 0 0 0 127 0"/>
<feOffset dy="4"/>
<feGaussianBlur stdDeviation="2"/>
<feColorMatrix type="matrix" values="0 0 0 0 0 0 0 0 0 0 0 0 0 0 0 0 0 0 0.25 0"/>
<feBlend mode="normal" in2="BackgroundImageFix" result="effect1_dropShadow"/>
<feBlend mode="normal" in="SourceGraphic" in2="effect1_dropShadow" result="shape"/>
</filter>
<filter id="filter2_d" x="110" y="249.096" width="46.6883" height="49.8072" filterUnits="userSpaceOnUse" color-interpolation-filters="sRGB">
<feFlood flood-opacity="0" result="BackgroundImageFix"/>
<feColorMatrix in="SourceAlpha" type="matrix" values="0 0 0 0 0 0 0 0 0 0 0 0 0 0 0 0 0 0 127 0"/>
<feOffset dy="4"/>
<feGaussianBlur stdDeviation="2"/>
<feColorMatrix type="matrix" values="0 0 0 0 0 0 0 0 0 0 0 0 0 0 0 0 0 0 0.25 0"/>
<feBlend mode="normal" in2="BackgroundImageFix" result="effect1_dropShadow"/>
<feBlend mode="normal" in="SourceGraphic" in2="effect1_dropShadow" result="shape"/>
</filter>
<filter id="filter3_d" x="221.393" y="11.4842" width="17.2136" height="17.9533" filterUnits="userSpaceOnUse" color-interpolation-filters="sRGB">
<feFlood flood-opacity="0" result="BackgroundImageFix"/>
<feColorMatrix in="SourceAlpha" type="matrix" values="0 0 0 0 0 0 0 0 0 0 0 0 0 0 0 0 0 0 127 0"/>
<feOffset dy="1"/>
<feGaussianBlur stdDeviation="1"/>
<feColorMatrix type="matrix" values="0 0 0 0 0 0 0 0 0 0 0 0 0 0 0 0 0 0 0.25 0"/>
<feBlend mode="normal" in2="BackgroundImageFix" result="effect1_dropShadow"/>
<feBlend mode="normal" in="SourceGraphic" in2="effect1_dropShadow" result="shape"/>
</filter>
</defs>
</svg>
