<?xml version="1.0" encoding="utf-8"?>
<!-- Generator: Adobe Illustrator 15.0.0, SVG Export Plug-In . SVG Version: 6.00 Build 0)  -->
<!DOCTYPE svg PUBLIC "-//W3C//DTD SVG 1.1//EN" "http://www.w3.org/Graphics/SVG/1.1/DTD/svg11.dtd">
<svg version="1.1" id="Ebene_1" xmlns="http://www.w3.org/2000/svg" xmlns:xlink="http://www.w3.org/1999/xlink" x="0px" y="0px"
	 width="841.89px" height="595.28px" viewBox="0 0 841.89 595.28" enable-background="new 0 0 841.89 595.28" xml:space="preserve">
<polygon fill="#F6F6F6" stroke="#1D1D1B" stroke-width="1.119" stroke-miterlimit="10" points="74.244,359.813 225.315,480.669 
	628.172,480.669 779.243,359.813 618.101,108.026 527.457,198.669 326.029,198.669 215.244,108.026 "/>
<polygon fill="#B4CECB" points="218.873,122.755 86.553,358.662 227.19,472.08 627.174,472.08 766.299,360.175 618.856,121.999 
	533.415,210.464 319.436,208.196 300.533,190.806 "/>
<polygon fill="#878787" points="225.315,480.669 154.815,470.598 174.958,440.384 "/>
<polygon fill="#878787" points="628.173,480.669 698.672,470.598 678.529,440.384 656.149,458.288 "/>
<path fill="none" stroke="#706F6F" stroke-width="1.119" stroke-miterlimit="10" d="M215.244,138.241"/>
<path fill="none" stroke="#F6F6F6" stroke-width="7.1821" stroke-miterlimit="10" d="M183.335,180.877l51.158,30.753
	c0,0,16.527,30.752,16.527,47.375c0,16.624,46.436,30.753,46.436,30.753l97.592-83.115"/>
<path fill="none" stroke="#F6F6F6" stroke-width="7.1821" stroke-miterlimit="10" d="M153.847,412.348l73.343-60.489
	c0,0,0.299-12.704-2.027-27.015c-0.523-3.221-1.18-6.523-2.003-9.781c-3.744-14.822-10.931-28.709-24.703-29.743
	c-30.245-2.269-61.245-15.122-61.245-15.122"/>
<line fill="none" stroke="#F6F6F6" stroke-width="7.1821" stroke-miterlimit="10" x1="271.8" y1="277.759" x2="223.16" y2="315.063"/>
<path fill="none" stroke="#F6F6F6" stroke-width="7.1821" stroke-miterlimit="10" d="M497.122,471.323l-9.829-102.074
	c0,0-37.806-38.563-35.537-57.466c2.268-18.902,29.488-57.464,41.586-62l21.928-3.024l-4.538-37.05"/>
<path fill="none" stroke="#F6F6F6" stroke-width="7.1821" stroke-miterlimit="10" d="M466.122,348.077l-59.733,0.756l-30.245,47.636
	c0,0,5.293,15.122,25.708,14.366c20.415-0.757,86.197-0.757,86.197-0.757"/>
<path fill="none" stroke="#F6F6F6" stroke-width="7.2862" stroke-miterlimit="10" d="M659.687,450.908l-36.294-109.725
	c0,0,17.391-72.371,40.83-79.375c23.44-7.005,29.489-24.125,29.489-24.125"/>
<polyline fill="none" stroke="#F6F6F6" stroke-width="7.2862" stroke-miterlimit="10" points="641.54,290.612 611.295,227.099 
	554.587,192.318 544.002,192.318 "/>
<path fill="none" stroke="#F6F6F6" stroke-width="7.2862" stroke-miterlimit="10" d="M490.316,376.81l72.588-9.073
	c0,0,29.489-36.294,9.83-55.953c-19.66-19.658-33.269-64.269-57.465-65.025"/>
<path fill="none" stroke="#F6F6F6" stroke-width="7.3583" stroke-miterlimit="10" d="M311.875,475.859l30.245-171.194
	c0,0-3.025-14.652,43.854-22.363c46.879-7.711,40.075,3.084,50.66-22.364c10.586-25.448,6.806-39.328,6.806-39.328l-10.586-11.567
	l-15.122-4.626"/>
<g>
	<path fill="#EDEDED" stroke="#1D1D1B" stroke-width="0.3612" stroke-miterlimit="10" d="M354.837,176.805v-2.057
		c0,0,0-2.056,5.141-2.056s10.282,0,10.282,0s5.141,0,5.141,2.056c0,2.057,0,2.057,0,2.057"/>
	<path fill="#EDEDED" stroke="#1D1D1B" stroke-width="0.4569" stroke-miterlimit="10" d="M332.008,203.617
		c0,0,8.226-28.788,32.9-28.788c24.676,0,32.901,28.788,32.901,28.788H332.008z"/>
	<path fill="#EDEDED" stroke="#1D1D1B" stroke-width="0.4569" stroke-miterlimit="10" d="M348.459,203.617
		c0,0,0-28.788,17.037-28.788c0,0,15.863,0,15.863,28.788"/>
	<rect x="332.008" y="207.73" fill="#EDEDED" width="65.801" height="32.9"/>
	<path fill="#EDEDED" stroke="#1D1D1B" stroke-width="0.3612" stroke-miterlimit="10" d="M410.146,170.716"/>
	
		<rect x="356.683" y="157.922" fill="#EDEDED" stroke="#1D1D1B" stroke-width="0.5562" stroke-miterlimit="10" width="16.45" height="14.623"/>
	
		<line fill="#EDEDED" stroke="#1D1D1B" stroke-width="0.5562" stroke-miterlimit="10" x1="352.571" y1="158.379" x2="377.246" y2="158.379"/>
	<path fill="#EDEDED" stroke="#1D1D1B" stroke-width="0.3334" stroke-miterlimit="10" d="M356.683,158.379c0,0,0-10.51,8.225-10.51
		s8.225,10.121,8.225,10.121"/>
	
		<line fill="#EDEDED" stroke="#1D1D1B" stroke-width="0.3958" stroke-miterlimit="10" x1="364.908" y1="147.869" x2="364.908" y2="133.704"/>
	<circle fill="#EDEDED" stroke="#1D1D1B" stroke-width="0.3334" stroke-miterlimit="10" cx="364.908" cy="142.632" r="2.056"/>
	
		<line fill="#EDEDED" stroke="#1D1D1B" stroke-width="0.349" stroke-miterlimit="10" x1="363.264" y1="136.902" x2="366.463" y2="136.902"/>
	<path fill="#EDEDED" stroke="#1D1D1B" stroke-width="0.3823" stroke-miterlimit="10" d="M366.92,170.488h3.199
		c0,0,0.799,0,0.799-1.142c0-1.143,0-7.998,0-7.998s0-1.142-0.799-1.142c-0.8,0-2.4,0-2.4,0h-0.799c0,0-0.8,0-0.8,1.142
		c0,1.143,0,7.998,0,7.998S366.121,170.488,366.92,170.488z"/>
	<path fill="#EDEDED" stroke="#1D1D1B" stroke-width="0.3823" stroke-miterlimit="10" d="M359.609,170.488h3.198
		c0,0,0.799,0,0.799-1.142c0-1.143,0-7.998,0-7.998s0-1.142-0.799-1.142c-0.8,0-2.399,0-2.399,0h-0.799c0,0-0.8,0-0.8,1.142
		c0,1.143,0,7.998,0,7.998S358.809,170.488,359.609,170.488z"/>
	
		<rect x="332.008" y="203.617" fill="#EDEDED" stroke="#1D1D1B" stroke-width="0.3823" stroke-miterlimit="10" width="65.801" height="4.113"/>
	
		<line fill="#EDEDED" stroke="#1D1D1B" stroke-width="0.3823" stroke-miterlimit="10" x1="332.008" y1="235.29" x2="332.008" y2="207.73"/>
	
		<line fill="#EDEDED" stroke="#1D1D1B" stroke-width="0.3823" stroke-miterlimit="10" x1="397.809" y1="237.254" x2="397.809" y2="207.73"/>
	<path fill="#EDEDED" stroke="#1D1D1B" stroke-width="0.4569" stroke-miterlimit="10" d="M315.146,240.401v-16.999
		c0,0,4.25-2.125,4.25-4.25c0-2.124,0-2.124,0-2.124s-2.125,0-2.125-2.125c0-2.125,2.125-2.125,2.125-2.125v-2.125l2.125-2.125
		l2.125,2.125v2.125c0,0,2.125,0,2.125,2.125c0,2.125-2.125,2.125-2.125,2.125v2.124c0,0,2.125,4.25,4.25,4.25v16.999H315.146z"/>
	<path fill="#EDEDED" stroke="#1D1D1B" stroke-width="0.4569" stroke-miterlimit="10" d="M401.967,240.63v-16.999
		c0,0,4.25-2.125,4.25-4.25c0-2.125,0-2.125,0-2.125s-2.125,0-2.125-2.125c0-2.125,2.125-2.125,2.125-2.125v-2.125l2.126-2.125
		l2.124,2.125v2.125c0,0,2.125,0,2.125,2.125c0,2.125-2.125,2.125-2.125,2.125v2.125c0,0,2.125,4.25,4.249,4.25v16.999H401.967z"/>
	<path fill="#EDEDED" stroke="#1D1D1B" stroke-width="0.4251" stroke-miterlimit="10" d="M355.598,233.992v-37.374
		c0,0,4.626-2.669,6.94-5.339h4.626c0,0,4.628,5.339,6.94,5.339v37.374C355.598,233.992,355.598,233.992,355.598,233.992z"/>
	
		<line fill="#EDEDED" stroke="#1D1D1B" stroke-width="0.3046" stroke-miterlimit="10" x1="361.347" y1="230.12" x2="369.572" y2="230.12"/>
	
		<line fill="#EDEDED" stroke="#1D1D1B" stroke-width="0.3046" stroke-miterlimit="10" x1="361.347" y1="231.476" x2="369.572" y2="231.476"/>
	<path fill="#EDEDED" stroke="#1D1D1B" stroke-width="0.3153" stroke-miterlimit="10" d="M315.146,240.401l-7.52,0.229
		c0,0,0,4.112-4.406,4.112v61.688h123.376v-61.688c0,0-4.406,0-4.406-4.112h-7.476"/>
	<path fill="#EDEDED" stroke="#1D1D1B" stroke-width="0.4527" stroke-miterlimit="10" d="M353.027,295.235h24.676v-52.473
		c0,0-4.359-6.931-12.127-6.931c-7.769,0-12.549,6.931-12.549,6.931V295.235z"/>
	<circle fill="#EDEDED" stroke="#1D1D1B" stroke-width="0.4569" stroke-miterlimit="10" cx="365.119" cy="246.113" r="5.483"/>
	<polyline fill="#EDEDED" stroke="#1D1D1B" stroke-width="0.4272" stroke-miterlimit="10" points="319.67,244.729 319.67,295.235 
		339.319,295.235 339.319,244.729 	"/>
	<polyline fill="#EDEDED" stroke="#1D1D1B" stroke-width="0.4292" stroke-miterlimit="10" points="390.272,244.946 390.272,295.235 
		409.725,295.235 409.725,244.946 	"/>
	<polyline fill="#EDEDED" stroke="#1D1D1B" stroke-width="0.4437" stroke-miterlimit="10" points="303.22,294.321 321.041,294.321 
		352.571,294.321 391.901,294.321 426.597,294.321 	"/>
	
		<line fill="#EDEDED" stroke="#1D1D1B" stroke-width="0.4437" stroke-miterlimit="10" x1="303.22" y1="295.235" x2="426.597" y2="295.235"/>
	<path fill="#EDEDED" stroke="#1D1D1B" stroke-width="0.4395" stroke-miterlimit="10" d="M325.46,294.321h9.139v-27.734
		c0,0-1.524-3.338-4.569-3.338c-3.046,0-4.569,3.338-4.569,3.338V294.321z"/>
	<path fill="#EDEDED" stroke="#1D1D1B" stroke-width="0.5383" stroke-miterlimit="10" d="M359.411,294.093h10.809v-35.177
		c0,0-1.802-4.234-5.405-4.234s-5.404,4.234-5.404,4.234V294.093z"/>
	<path fill="#EDEDED" stroke="#1D1D1B" stroke-width="0.4395" stroke-miterlimit="10" d="M395.405,294.093h9.139v-27.734
		c0,0-1.523-3.338-4.569-3.338c-3.047,0-4.57,3.338-4.57,3.338V294.093z"/>
	<path fill="#EDEDED" stroke="#1D1D1B" stroke-width="0.4395" stroke-miterlimit="10" d="M342.061,294.321h9.139v-27.734
		c0,0-1.523-3.338-4.569-3.338c-3.046,0-4.569,3.338-4.569,3.338V294.321z"/>
	<path fill="#EDEDED" stroke="#1D1D1B" stroke-width="0.4395" stroke-miterlimit="10" d="M379.214,294.321h9.139v-27.734
		c0,0-1.523-3.338-4.57-3.338c-3.045,0-4.569,3.338-4.569,3.338V294.321z"/>
	<path fill="#EDEDED" stroke="#1D1D1B" stroke-width="0.4569" stroke-miterlimit="10" d="M361.761,306.431h5.838v-8.408
		c0,0-0.973-2.103-2.92-2.103c-1.946,0-2.918,2.103-2.918,2.103V306.431z"/>
	<path fill="#EDEDED" stroke="#1D1D1B" stroke-width="0.4569" stroke-miterlimit="10" d="M344.539,304.025h4.182v-6.021
		c0,0-0.697-1.506-2.09-1.506c-1.394,0-2.091,1.506-2.091,1.506V304.025z"/>
	<path fill="#EDEDED" stroke="#1D1D1B" stroke-width="0.4569" stroke-miterlimit="10" d="M328.774,304.025h4.182v-6.021
		c0,0-0.696-1.506-2.09-1.506c-1.395,0-2.092,1.506-2.092,1.506V304.025z"/>
	<path fill="#EDEDED" stroke="#1D1D1B" stroke-width="0.4569" stroke-miterlimit="10" d="M383.218,304.025h4.182v-6.021
		c0,0-0.696-1.506-2.09-1.506c-1.395,0-2.091,1.506-2.091,1.506V304.025z"/>
	<path fill="#EDEDED" stroke="#1D1D1B" stroke-width="0.4569" stroke-miterlimit="10" d="M401.201,304.025h4.182v-6.021
		c0,0-0.696-1.506-2.09-1.506c-1.395,0-2.091,1.506-2.091,1.506V304.025z"/>
	
		<line fill="#EDEDED" stroke="#1D1D1B" stroke-width="0.4569" stroke-miterlimit="10" x1="303.22" y1="248.855" x2="315.558" y2="248.855"/>
	
		<line fill="#EDEDED" stroke="#1D1D1B" stroke-width="0.4569" stroke-miterlimit="10" x1="426.597" y1="248.855" x2="414.259" y2="248.855"/>
	<path fill="#EDEDED" stroke="#1D1D1B" stroke-width="0.4569" stroke-miterlimit="10" d="M336.222,232.405h8.124v-11.698
		c0,0-1.354-2.924-4.062-2.924s-4.062,2.924-4.062,2.924V232.405z"/>
	<path fill="#EDEDED" stroke="#1D1D1B" stroke-width="0.4569" stroke-miterlimit="10" d="M385.471,232.405h8.123v-11.698
		c0,0-1.354-2.924-4.062-2.924c-2.708,0-4.061,2.924-4.061,2.924V232.405z"/>
	<polyline fill="#EDEDED" stroke="#1D1D1B" stroke-width="0.3808" stroke-miterlimit="10" points="329.58,220.067 339.86,213.213 
		350.142,220.067 	"/>
	<polyline fill="#EDEDED" stroke="#1D1D1B" stroke-width="0.3808" stroke-miterlimit="10" points="378.801,218.697 389.082,211.842 
		399.364,218.697 	"/>
	<polyline fill="#EDEDED" stroke="#1D1D1B" stroke-width="0.5331" stroke-miterlimit="10" points="315.558,243.372 329.952,233.775 
		344.346,243.372 	"/>
	<polyline fill="#EDEDED" stroke="#1D1D1B" stroke-width="0.5331" stroke-miterlimit="10" points="385.471,243.512 399.866,233.916 
		414.259,243.512 	"/>
	<circle fill="#EDEDED" stroke="#1D1D1B" stroke-width="0.4569" stroke-miterlimit="10" cx="329.952" cy="244.742" r="5.484"/>
	<circle fill="#EDEDED" stroke="#1D1D1B" stroke-width="0.4569" stroke-miterlimit="10" cx="400.55" cy="243.829" r="5.483"/>
	<circle fill="#EDEDED" stroke="#1D1D1B" stroke-width="0.3808" stroke-miterlimit="10" cx="364.68" cy="205.216" r="3.427"/>
	<path fill="#EDEDED" stroke="#1D1D1B" stroke-width="0.4569" stroke-miterlimit="10" d="M360.796,228.505h9.139v-13.16
		c0,0-1.523-3.291-4.569-3.291c-3.046,0-4.569,3.291-4.569,3.291V228.505z"/>
	
		<line fill="#EDEDED" stroke="#1D1D1B" stroke-width="0.4569" stroke-miterlimit="10" x1="303.22" y1="249.989" x2="315.558" y2="249.989"/>
	
		<line fill="#EDEDED" stroke="#1D1D1B" stroke-width="0.4569" stroke-miterlimit="10" x1="414.259" y1="249.989" x2="426.597" y2="249.989"/>
	<g>
		<path fill="#EDEDED" stroke="#1D1D1B" stroke-width="0.4569" stroke-miterlimit="10" d="M332.091,157.063
			c-1.575,12.136,8.142,17.766,8.142,17.766"/>
		<path fill="#EDEDED" stroke="#1D1D1B" stroke-width="0.4569" stroke-miterlimit="10" d="M333.011,152.951
			c0.516-1.651,1.229-3.397,2.185-5.246"/>
	</g>
	<ellipse fill="#EDEDED" cx="336.501" cy="145.779" rx="0.369" ry="0.402"/>
	<ellipse fill="#EDEDED" cx="331.919" cy="191.68" rx="0.369" ry="0.401"/>
	<ellipse fill="#EDEDED" cx="428.653" cy="212.635" rx="0.369" ry="0.401"/>
	<ellipse fill="#EDEDED" cx="391.728" cy="138.958" rx="0.368" ry="0.401"/>
	<ellipse fill="#EDEDED" cx="294.31" cy="257.08" rx="0.369" ry="0.4"/>
</g>
</svg>
